# xmcd
#
# Track frame offsets:
# 150
# 12805
# 24494
# 40434
# 55413
# 68488
# 76668
# 85277
# 93795
# 111033
# 127762
# 137612
# 147891
# 158197
# 167905
# 177271
#
# Disc length: 2500 seconds
#
#
# Revision: 0
# Processed by: cddbd v1.5.1PL2 Copyright (c) Steve Scherf et al.
# Submitted via: FreeRIP 2.945 
#
DISCID=c109c210
DTITLE=AAVV - Western Collection Vol 1
DYEAR=2004
DGENRE=Soundtrack
TTITLE0=Per qualche dollaro in più - E. Morricone
TTITLE1=Il etait une fois la revolution - Giù la testa - E. Morricone
TTITLE2=C'era una volta il west - E. Morricone
TTITLE3=Il mercenario - E. Morricone
TTITLE4=Il buono, il brutto, il cattivo - E. Morricone
TTITLE5=Per un pugno di dollari - E. Morricone
TTITLE6=Red river valley - tradizionale
TTITLE7=Bonanza - Livingston, Evans
TTITLE8=Mezzogiorno di fuoco - Ferracini, Giuliano
TTITLE9=Alzata con pugno - Ferracini, Giuliano
TTITLE10=Ghost riders in the sky - Jones
TTITLE11=L'uomo che uccise Liberty Wallace - Bacharach, David
TTITLE12=The hanging tree - Livingston, David
TTITLE13=Strade di Laredo - tradizionale
TTITLE14=I magnifici sette - Berustein
TTITLE15=High Chaparral - Rose
EXTD=2004
EXTT0=
EXTT1=
EXTT2=
EXTT3=
EXTT4=
EXTT5=
EXTT6=
EXTT7=
EXTT8=
EXTT9=
EXTT10=
EXTT11=
EXTT12=
EXTT13=
EXTT14=
EXTT15=
PLAYORDER=
